<svg style="position: absolute; width: 0; height: 0; overflow: hidden;" version="1.1" xmlns="http://www.w3.org/2000/svg">
<defs>
<symbol id="icon-angle_right" viewBox="0 0 11 32">
<title>angle_right</title>
<path d="M10.625 17.143q0 0.232-0.179 0.411l-8.321 8.321q-0.179 0.179-0.411 0.179t-0.411-0.179l-0.893-0.893q-0.179-0.179-0.179-0.411t0.179-0.411l7.018-7.018-7.018-7.018q-0.179-0.179-0.179-0.411t0.179-0.411l0.893-0.893q0.179-0.179 0.411-0.179t0.411 0.179l8.321 8.321q0.179 0.179 0.179 0.411z"></path>
</symbol>
<symbol id="icon-angle_up" viewBox="0 0 21 32">
<title>angle_up</title>
<path d="M19.196 21.143q0 0.232-0.179 0.411l-0.893 0.893q-0.179 0.179-0.411 0.179t-0.411-0.179l-7.018-7.018-7.018 7.018q-0.179 0.179-0.411 0.179t-0.411-0.179l-0.893-0.893q-0.179-0.179-0.179-0.411t0.179-0.411l8.321-8.321q0.179-0.179 0.411-0.179t0.411 0.179l8.321 8.321q0.179 0.179 0.179 0.411z"></path>
</symbol>
<symbol id="icon-envelope" viewBox="0 0 45 32">
<title>envelope</title>
<path d="M45.176 2.071c0-1.129-0.941-2.071-2.071-2.071h-41.035c-1.129 0-2.071 0.941-2.071 2.071v27.859c0 1.129 0.941 2.071 2.071 2.071h41.035c1.129 0 2.071-0.941 2.071-2.071v-27.859zM15.435 17.882l5.647 5.459c0.753 0.753 2.259 0.753 3.012-0.188l5.647-5.271 9.976 10.353h-34.259l9.976-10.353zM3.765 26.541v-20.894l10.353 10.353-10.353 10.541zM31.059 16l10.353-10.353v20.894l-10.353-10.541zM41.412 3.765v-0.753l-18.824 18.635-18.824-18.635v0.753h37.647z"></path>
</symbol>
<symbol id="icon-search" viewBox="0 0 32 32">
<title>search</title>
<path d="M12.667 24.8c-3.2 0-6.267-1.267-8.533-3.533-4.733-4.733-4.733-12.4 0-17.133 2.267-2.267 5.333-3.533 8.533-3.533s6.267 1.267 8.533 3.533c4.733 4.733 4.733 12.4 0 17.133-2.267 2.267-5.267 3.533-8.533 3.533zM12.667 2.133c-2.8 0-5.467 1.067-7.467 3.067-4.133 4.133-4.133 10.867 0 15 2 2 4.667 3.133 7.467 3.133s5.467-1.133 7.467-3.133c4.133-4.133 4.133-10.867 0-15-1.933-2-4.6-3.067-7.467-3.067z"></path>
<path d="M30.533 31.267c-0.2 0-0.4-0.067-0.533-0.2l-9.333-9c-0.333-0.267-0.333-0.8 0-1.067 0.267-0.333 0.8-0.333 1.067 0l9.333 9c0.333 0.267 0.333 0.8 0 1.067-0.133 0.133-0.333 0.2-0.533 0.2z"></path>
</symbol>
</defs>
</svg>
